<?xml version="1.0" encoding="UTF-8" standalone="no"?>
<!DOCTYPE svg PUBLIC "-//W3C//DTD SVG 1.1//EN" "http://www.w3.org/Graphics/SVG/1.1/DTD/svg11.dtd">
<svg xmlns="http://www.w3.org/2000/svg" version="1.1" xmlns:xl="http://www.w3.org/1999/xlink" xmlns:dc="http://purl.org/dc/elements/1.1/" viewBox="0 0 512 512" width="512" height="512">
  <defs/>
  <g id="Pure_Logo" fill="none" stroke-dasharray="none" fill-opacity="1" stroke-opacity="1" stroke="none">
    <title>Pure Logo</title>
    <g id="Pure_Logo_图层_2">
      <title>图层 2</title>
      <g id="Graphic_16"/>
      <g id="Graphic_15">
        <path d="M 163.54532 255.38847 L 209.73336 175.38847 L 302.10945 175.38847 L 348.2975 255.38847 L 302.10945 335.38847 L 209.73336 335.38847 Z" fill="#bbb" fill-opacity=".9526367"/>
        <path d="M 163.54532 255.38847 L 209.73336 175.38847 L 302.10945 175.38847 L 348.2975 255.38847 L 302.10945 335.38847 L 209.73336 335.38847 Z" stroke="white" stroke-linecap="round" stroke-linejoin="round" stroke-width="14.358258"/>
      </g>
      <g id="Graphic_14">
        <path d="M 163.54532 415.4625 L 209.73336 335.46252 L 302.10945 335.46252 L 348.2975 415.4625 L 302.10945 495.4625 L 209.73336 495.4625 Z" fill="#de372c" fill-opacity=".8545852"/>
        <path d="M 163.54532 415.4625 L 209.73336 335.46252 L 302.10945 335.46252 L 348.2975 415.4625 L 302.10945 495.4625 L 209.73336 495.4625 Z" stroke="white" stroke-linecap="round" stroke-linejoin="round" stroke-width="14.358258"/>
      </g>
      <g id="Graphic_13">
        <path d="M 302.1115 336.02564 L 348.29953 256.02564 L 440.6756 256.02564 L 486.86366 336.02564 L 440.6756 416.02564 L 348.29953 416.02564 Z" fill="#424242" fill-opacity=".9016462"/>
        <path d="M 302.1115 336.02564 L 348.29953 256.02564 L 440.6756 256.02564 L 486.86366 336.02564 L 440.6756 416.02564 L 348.29953 416.02564 Z" stroke="white" stroke-linecap="round" stroke-linejoin="round" stroke-width="14.358258"/>
      </g>
      <g id="Graphic_12">
        <path d="M 302.1115 175.48816 L 348.29953 95.48816 L 440.6756 95.48816 L 486.86366 175.48816 L 440.6756 255.48816 L 348.29953 255.48816 Z" fill="#ffa269" fill-opacity=".8975772"/>
        <path d="M 302.1115 175.48816 L 348.29953 95.48816 L 440.6756 95.48816 L 486.86366 175.48816 L 440.6756 255.48816 L 348.29953 255.48816 Z" stroke="white" stroke-linecap="round" stroke-linejoin="round" stroke-width="14.358258"/>
      </g>
      <g id="Graphic_11">
        <path d="M 163.54532 96 L 209.73336 16 L 302.10945 16 L 348.2975 96 L 302.10945 176 L 209.73336 176 Z" fill="#419edb" fill-opacity=".8979957"/>
        <path d="M 163.54532 96 L 209.73336 16 L 302.10945 16 L 348.2975 96 L 302.10945 176 L 209.73336 176 Z" stroke="white" stroke-linecap="round" stroke-linejoin="round" stroke-width="14.358258"/>
      </g>
      <g id="Graphic_10">
        <path d="M 24.515717 175.48816 L 70.70376 95.48816 L 163.07985 95.48816 L 209.2679 175.48816 L 163.07985 255.48816 L 70.70376 255.48816 Z" fill="#2f6793" fill-opacity=".9002511"/>
        <path d="M 24.515717 175.48816 L 70.70376 95.48816 L 163.07985 95.48816 L 209.2679 175.48816 L 163.07985 255.48816 L 70.70376 255.48816 Z" stroke="white" stroke-linecap="round" stroke-linejoin="round" stroke-width="14.358258"/>
      </g>
      <g id="Graphic_9">
        <path d="M 25.217514 335.80878 L 71.40556 255.80878 L 163.78164 255.80878 L 209.96969 335.80878 L 163.78164 415.8088 L 71.40556 415.8088 Z" fill="#53ac79" fill-opacity=".9"/>
        <path d="M 25.217514 335.80878 L 71.40556 255.80878 L 163.78164 255.80878 L 209.96969 335.80878 L 163.78164 415.8088 L 71.40556 415.8088 Z" stroke="white" stroke-linecap="round" stroke-linejoin="round" stroke-width="14.358258"/>
      </g>
    </g>
  </g>
</svg>
